<?xml version="1.0" standalone="no"?>
<!DOCTYPE svg PUBLIC "-//W3C//DTD SVG 20010904//EN"
 "http://www.w3.org/TR/2001/REC-SVG-20010904/DTD/svg10.dtd">
<svg version="1.0" xmlns="http://www.w3.org/2000/svg"
 width="1280.000000pt" height="1280.000000pt" viewBox="0 0 1280.000000 1280.000000"
 preserveAspectRatio="xMidYMid meet">
<metadata>
Created by potrace 1.14, written by Peter Selinger 2001-2017
</metadata>
<g transform="translate(0.000000,1280.000000) scale(0.100000,-0.100000)"
fill="#000000" stroke="none">
<path d="M8196 12745 c-9 -13 -16 -28 -16 -34 0 -5 -15 -7 -32 -5 -100 11
-119 10 -135 -1 -17 -12 -16 -20 15 -118 23 -77 30 -112 23 -129 -30 -79 -65
-138 -100 -171 -23 -21 -41 -42 -41 -47 0 -4 11 -32 25 -61 24 -53 25 -73 3
-51 -7 7 -18 12 -24 12 -7 0 -41 13 -76 28 -129 59 -131 59 -265 37 -35 -6
-50 -3 -89 19 -46 26 -55 27 -155 13 -47 -7 -50 -13 -43 -90 3 -40 9 -89 14
-110 5 -24 3 -56 -5 -90 -8 -28 -16 -65 -19 -82 -12 -74 -19 -95 -33 -95 -9 0
-56 18 -105 40 -120 55 -139 58 -171 28 -14 -12 -58 -53 -99 -89 -50 -45 -77
-79 -87 -105 -7 -22 -31 -85 -54 -141 l-41 -103 -63 -30 c-34 -17 -67 -40 -74
-51 -6 -11 -11 -53 -12 -92 -2 -70 -1 -74 36 -119 37 -45 38 -49 32 -100 -4
-29 -7 -69 -7 -90 1 -32 -4 -40 -41 -64 -128 -84 -153 -110 -208 -216 -28 -57
-62 -112 -74 -123 -31 -28 -111 -95 -132 -110 -15 -11 -17 -32 -18 -138 0 -69
-3 -128 -6 -131 -5 -6 -94 -20 -124 -20 -11 0 -49 4 -85 9 -82 11 -118 11
-131 -2 -5 -5 -12 -57 -15 -114 -8 -175 -23 -276 -45 -304 -4 -6 -11 -26 -14
-44 -3 -19 -10 -42 -16 -52 -5 -11 -8 -19 -5 -19 2 0 -4 -30 -15 -67 -11 -38
-21 -78 -23 -90 -3 -13 -8 -28 -12 -34 -3 -6 -1 -28 6 -50 12 -37 12 -39 -17
-66 -20 -19 -32 -42 -37 -72 -8 -51 -24 -84 -65 -130 -17 -18 -43 -49 -58 -69
-42 -54 -166 -206 -173 -212 -3 -3 -21 -25 -40 -50 -19 -25 -40 -49 -46 -55
-17 -15 -23 -40 -14 -55 4 -7 50 -34 101 -60 l94 -48 -2 -53 c-7 -145 -14
-180 -50 -239 -38 -65 -32 -63 -123 -22 -30 13 -95 42 -143 63 l-88 39 -97
-50 c-83 -43 -109 -63 -172 -132 -41 -45 -85 -92 -98 -105 -12 -13 -22 -26
-22 -29 0 -2 -14 -18 -30 -34 -17 -16 -30 -33 -30 -38 0 -14 -45 -49 -72 -55
-33 -9 -39 -34 -23 -102 l12 -54 -46 -73 c-60 -93 -61 -96 -51 -149 5 -24 11
-62 14 -84 4 -22 8 -53 11 -70 4 -26 -1 -35 -40 -65 l-44 -35 4 -85 5 -85 -40
-58 c-45 -65 -48 -86 -26 -207 13 -70 14 -194 2 -250 -3 -13 -8 -42 -11 -65
-6 -39 -41 -267 -51 -334 -3 -19 -7 -48 -8 -64 -3 -38 65 -172 109 -216 19
-18 35 -37 35 -42 0 -5 22 -39 49 -75 48 -66 48 -67 36 -107 -10 -33 -18 -43
-42 -49 -24 -6 -32 -16 -42 -48 -7 -23 -17 -43 -24 -45 -7 -3 -56 -6 -111 -9
-121 -5 -126 -10 -103 -101 3 -11 21 -101 41 -201 38 -195 43 -214 58 -214 6
0 8 -29 6 -70 -4 -67 -6 -70 -47 -106 l-42 -37 6 -73 c4 -41 3 -74 -2 -74 -4
0 -31 -21 -58 -48 -28 -26 -72 -66 -98 -89 l-48 -42 -44 21 -44 21 -42 -28
c-51 -36 -55 -45 -37 -93 8 -20 13 -43 12 -49 -1 -7 -2 -22 -3 -33 -1 -14 -11
-21 -39 -27 -20 -4 -40 -6 -44 -5 -3 1 -10 -4 -16 -11 -14 -18 -47 -111 -44
-122 2 -5 6 -26 8 -45 2 -19 10 -72 17 -116 l13 -82 -27 -33 c-21 -26 -27 -44
-28 -88 -1 -48 -5 -58 -29 -78 -16 -12 -37 -40 -47 -62 -29 -66 -48 -54 -40
25 7 72 -16 161 -44 172 -8 3 -52 -7 -98 -23 -59 -21 -85 -35 -90 -50 -7 -21
-8 -65 -17 -445 l-5 -235 41 -37 c24 -21 47 -34 55 -31 8 3 -4 -18 -26 -48
-23 -30 -41 -62 -41 -72 0 -20 32 -87 62 -129 17 -24 22 -26 43 -16 14 6 25
17 25 25 0 7 7 13 15 13 11 0 8 -14 -15 -61 -15 -33 -31 -63 -34 -67 -13 -13
-4 -52 21 -88 27 -40 62 -148 63 -194 0 -14 -14 -52 -31 -84 -25 -49 -28 -64
-20 -85 5 -14 12 -51 16 -81 8 -72 24 -90 61 -66 l26 18 -6 -60 c-5 -49 -2
-68 16 -108 12 -27 22 -51 23 -54 0 -3 11 -27 23 -54 12 -27 22 -50 22 -52 0
-2 20 -50 44 -107 24 -56 53 -136 66 -177 25 -82 48 -110 90 -110 22 0 30 -6
39 -31 10 -28 8 -35 -15 -57 -25 -26 -45 -28 -137 -18 -21 3 -32 -3 -44 -20
-14 -22 -13 -27 15 -79 17 -30 28 -55 26 -55 -3 0 -22 8 -43 18 -43 21 -81 14
-81 -16 0 -10 7 -42 16 -72 9 -29 17 -61 19 -69 2 -9 18 -70 35 -136 18 -66
35 -131 38 -145 3 -14 13 -37 23 -52 14 -20 17 -32 10 -50 -11 -29 0 -52 41
-86 34 -29 29 -40 -16 -40 -48 0 -74 -10 -78 -30 -2 -9 7 -55 19 -102 13 -47
23 -94 23 -106 0 -29 29 -52 71 -57 22 -2 68 -25 115 -55 43 -29 85 -52 94
-52 10 0 25 9 35 20 10 11 30 20 45 20 15 0 39 9 52 20 14 10 27 17 29 15 3
-2 34 -7 69 -10 42 -4 76 -14 94 -28 46 -32 105 -39 137 -16 15 10 32 19 38
19 6 0 11 3 11 8 0 4 16 25 35 47 19 22 39 45 45 52 18 21 11 59 -26 138 -35
75 -36 78 -21 114 9 20 18 46 22 57 9 33 45 69 65 66 28 -5 58 15 76 49 13 26
19 30 42 24 15 -3 29 -11 30 -16 2 -5 16 -9 32 -9 23 0 30 7 44 40 9 22 16 47
16 55 0 8 8 12 18 11 9 -2 37 -6 62 -9 107 -15 137 -19 175 -26 51 -10 102 -7
138 8 16 6 34 11 40 11 11 0 27 -29 36 -65 5 -21 36 -46 51 -42 35 9 140 93
151 122 7 17 18 44 25 60 14 32 51 123 89 216 12 31 42 83 66 115 24 33 49 68
55 79 6 11 16 29 22 40 7 11 25 71 42 134 16 62 31 114 32 115 68 41 70 49 33
114 -32 57 -23 109 28 155 43 39 45 44 62 247 8 90 16 113 49 145 32 31 34 38
80 299 22 125 38 246 33 257 -4 8 -14 24 -23 36 -16 22 -15 23 26 39 34 14 46
26 61 61 10 25 19 51 19 59 0 9 4 13 8 10 5 -3 45 17 90 43 44 27 89 51 99 53
10 3 99 29 197 58 98 28 186 53 195 55 27 5 164 44 166 47 15 17 74 91 90 112
11 16 25 34 31 40 7 7 45 62 87 123 55 83 76 123 82 159 9 52 11 62 15 67 1 1
3 11 4 22 2 11 6 34 10 51 9 39 -11 58 -59 56 l-34 -1 46 42 c98 89 176 173
186 201 7 18 -31 63 -95 112 -19 15 -31 39 -43 85 -40 155 -54 188 -120 275
-36 48 -65 90 -65 94 0 4 -12 13 -27 21 -23 11 -142 78 -150 83 -1 1 -5 29 -8
61 -3 33 -8 68 -11 77 -5 18 -46 32 -119 42 -86 12 -131 18 -155 20 -14 2 -28
4 -31 4 -7 2 -17 34 -25 81 -3 13 -12 51 -21 85 -17 65 -21 153 -9 227 3 25 8
72 10 105 6 77 18 188 21 192 1 2 -6 30 -16 63 -15 49 -16 64 -6 82 6 12 12
23 13 25 0 1 18 -4 40 -11 75 -27 85 -11 78 118 -6 102 5 155 59 300 6 17 13
36 14 43 5 20 10 36 16 52 13 30 16 72 7 88 -17 29 -50 112 -44 112 2 0 16 -7
29 -16 33 -22 57 -11 84 37 15 26 45 55 85 81 45 29 75 60 118 121 32 45 61
87 66 92 46 60 72 116 91 196 16 69 31 106 61 150 22 32 40 63 40 69 0 15 36
12 50 -5 7 -8 19 -15 28 -15 13 0 74 40 92 59 3 4 26 23 52 44 26 21 62 58 80
83 l33 46 18 -24 c39 -50 47 -58 57 -58 5 0 35 25 66 55 40 40 54 62 52 78 -2
18 11 32 70 72 89 61 104 71 178 114 137 80 138 81 189 203 74 176 95 211 170
290 189 199 187 195 136 258 -20 25 -44 54 -54 65 -49 53 -75 102 -81 156 l-7
55 86 105 c47 57 91 111 99 119 41 46 49 69 35 103 -7 17 -16 34 -19 37 -4 3
-12 21 -19 40 -13 38 -14 37 67 100 18 14 73 76 124 138 50 63 106 129 123
148 l32 34 101 -6 100 -6 54 41 54 41 122 4 c114 4 123 6 161 32 23 16 43 36
46 44 3 9 -11 69 -30 134 -34 117 -57 159 -118 218 -22 22 -28 39 -32 85 -3
32 -7 69 -10 83 -4 20 4 36 45 78 l50 53 -5 107 c-3 59 -7 134 -10 167 -4 60
-30 135 -47 135 -4 0 -8 6 -8 13 0 7 -20 46 -45 86 -57 92 -56 132 4 144 36 8
41 30 23 110 -7 32 -10 62 -7 67 3 5 1 11 -5 15 -6 4 -8 10 -5 15 7 11 -11 22
-55 35 -40 12 -44 27 -20 70 16 28 16 35 0 114 -9 47 -16 94 -14 105 7 53 15
72 36 90 29 23 26 40 -23 126 -21 38 -39 72 -39 76 0 18 -53 74 -70 74 -13 0
-22 9 -26 28 -17 77 -25 87 -125 162 -140 106 -148 110 -200 110 -43 0 -79 20
-79 45 0 4 -17 24 -37 43 -123 113 -147 138 -148 152 -1 8 -2 22 -3 30 -1 8
-22 29 -47 45 -24 17 -45 33 -45 36 0 9 -52 30 -77 32 -15 1 -20 8 -20 27 2
48 -52 197 -78 214 -34 23 -60 20 -79 -9z"/>
</g>
</svg>
